<svg width="9.001892" height="18.000000" viewBox="0 0 9.00189 18" fill="none" xmlns="http://www.w3.org/2000/svg" xmlns:xlink="http://www.w3.org/1999/xlink">
	<desc>
			Created with Pixso.
	</desc>
	<defs/>
	<path id="Vector" d="M0 8.1L0 5.76C0 5.52 0.19 5.3 0.43 5.3L1.85 5.3L1.85 4.13C1.85 1.41 3.24 0.02 6.02 0C6.95 0 7.83 0.11 8.66 0.36C8.92 0.43 9.01 0.59 9 0.85L8.68 3.13C8.66 3.23 8.6 3.33 8.5 3.43C8.38 3.49 8.26 3.53 8.15 3.51C7.65 3.37 7.14 3.31 6.57 3.31C5.78 3.31 5.66 3.47 5.66 4.29L5.66 5.3L8.21 5.3C8.44 5.3 8.66 5.54 8.66 5.79L8.47 8.14C8.47 8.38 8.27 8.54 8.03 8.54L5.66 8.54L5.66 17.54C5.66 17.78 5.47 18 5.23 18L2.3 18C2.07 18 1.85 17.78 1.85 17.54L1.85 8.54L0.43 8.54C0.32 8.54 0.21 8.49 0.12 8.41C0.04 8.33 0 8.22 0 8.1Z" fill="#000000" fill-opacity="1.000000" fill-rule="evenodd"/>
</svg>
