<svg width="18.000000" height="18.000000" viewBox="0 0 18 18" fill="none" xmlns="http://www.w3.org/2000/svg" xmlns:xlink="http://www.w3.org/1999/xlink">
	<desc>
			Created with Pixso.
	</desc>
	<defs/>
	<path id="Vector" d="M17.31 0.68C16.86 0.22 16.32 0 15.69 0L2.31 0C1.67 0 1.13 0.22 0.68 0.68C0.23 1.13 0 1.67 0 2.31L0 15.68C0 16.32 0.22 16.86 0.68 17.31C1.14 17.76 1.67 18 2.31 18L15.69 18C16.32 18 16.86 17.77 17.31 17.31C17.76 16.86 18 16.32 18 15.68L18 2.31C18 1.67 17.77 1.13 17.31 0.68ZM6.45 6.48C7.16 5.8 8.01 5.45 9 5.45C10 5.45 10.86 5.8 11.56 6.48C12.27 7.16 12.62 7.99 12.62 8.96C12.62 9.92 12.27 10.75 11.56 11.43C10.86 12.12 10 12.46 9 12.46C8.01 12.46 7.16 12.12 6.45 11.43C5.75 10.75 5.4 9.92 5.4 8.96C5.4 7.99 5.75 7.16 6.45 6.48ZM15.95 15.21C15.95 15.41 15.88 15.58 15.74 15.72C15.67 15.78 15.59 15.84 15.51 15.87C15.42 15.91 15.33 15.93 15.24 15.92L2.71 15.92C2.62 15.93 2.52 15.91 2.43 15.87C2.35 15.84 2.27 15.78 2.2 15.72C2.13 15.65 2.08 15.57 2.05 15.48C2.01 15.39 1.99 15.3 2 15.21L2 7.61L3.65 7.61C3.49 8.1 3.41 8.62 3.41 9.14C3.41 10.64 3.96 11.93 5.06 12.99C6.15 14.04 7.46 14.58 9.01 14.58C10 14.58 10.96 14.33 11.82 13.85C12.66 13.38 13.37 12.7 13.86 11.87C14.36 11.05 14.62 10.11 14.61 9.15C14.61 8.62 14.53 8.11 14.38 7.62L15.96 7.62L15.96 15.21L15.95 15.21ZM15.95 4.74C15.95 4.97 15.87 5.16 15.72 5.32C15.64 5.4 15.55 5.46 15.45 5.5C15.35 5.54 15.24 5.56 15.14 5.55L13.1 5.55C12.87 5.55 12.68 5.47 12.52 5.32C12.44 5.24 12.38 5.15 12.34 5.06C12.3 4.96 12.29 4.85 12.29 4.74L12.29 2.81C12.29 2.59 12.37 2.4 12.52 2.24C12.67 2.07 12.87 2 13.1 2L15.14 2C15.36 2 15.56 2.08 15.72 2.24C15.87 2.39 15.95 2.59 15.95 2.81L15.95 4.74Z" fill="#000000" fill-opacity="1.000000" fill-rule="evenodd"/>
</svg>
