<svg width="16.875000" height="13.606934" viewBox="0 0 16.875 13.6069" fill="none" xmlns="http://www.w3.org/2000/svg" xmlns:xlink="http://www.w3.org/1999/xlink">
	<desc>
			Created with Pixso.
	</desc>
	<defs/>
	<path id="Vector" d="M16.87 1.6C16.22 1.88 15.57 2.07 14.87 2.14C15.6 1.71 16.12 1.09 16.4 0.24C15.72 0.64 14.98 0.92 14.2 1.09C13.51 0.37 12.66 0 11.67 0C9.75 0 8.2 1.53 8.2 3.44C8.2 3.71 8.24 3.97 8.29 4.21C5.51 4.08 2.94 2.75 1.17 0.62C0.86 1.16 0.69 1.73 0.69 2.36C0.69 3.53 1.27 4.56 2.23 5.21C1.67 5.19 1.15 5.04 0.65 4.78L0.65 4.82C0.65 6.45 1.84 7.87 3.43 8.18C3.07 8.28 2.77 8.31 2.52 8.31C2.35 8.31 2.12 8.3 1.88 8.24C2.1 8.93 2.53 9.53 3.11 9.96C3.69 10.39 4.39 10.62 5.11 10.63C3.86 11.61 2.42 12.11 0.8 12.11C0.48 12.11 0.2 12.09 0 12.05C1.6 13.08 3.37 13.6 5.29 13.6C9.39 13.6 12.51 11.35 14.01 8.37C14.78 6.87 15.15 5.36 15.15 3.82L15.15 3.56C15.13 3.47 15.13 3.39 15.13 3.38C15.81 2.89 16.4 2.29 16.87 1.6L16.87 1.6Z" fill="#000000" fill-opacity="1.000000" fill-rule="evenodd"/>
</svg>
