<svg width="17.980652" height="10.483887" viewBox="0 0 17.9807 10.4839" fill="none" xmlns="http://www.w3.org/2000/svg" xmlns:xlink="http://www.w3.org/1999/xlink">
	<desc>
			Created with Pixso.
	</desc>
	<defs/>
	<path id="Vector" d="M17.15 10.43L14.75 10.47C14.75 10.47 14.24 10.57 13.56 10.09C12.66 9.46 11.81 7.82 11.15 8.04C10.49 8.26 10.51 9.73 10.51 9.73C10.51 9.73 10.52 10.05 10.36 10.21C10.19 10.4 9.87 10.43 9.87 10.43L8.8 10.43C8.8 10.43 6.43 10.58 4.34 8.35C2.06 5.93 0.05 1.12 0.05 1.12C0.05 1.12 -0.07 0.81 0.05 0.65C0.2 0.49 0.58 0.47 0.58 0.47L3.15 0.46C3.15 0.46 3.39 0.5 3.56 0.63C3.71 0.73 3.79 0.94 3.79 0.94C3.79 0.94 4.2 2.01 4.76 2.98C5.83 4.88 6.33 5.29 6.69 5.09C7.22 4.79 7.07 2.41 7.07 2.41C7.07 2.41 7.07 1.55 6.8 1.16C6.58 0.86 6.17 0.77 6 0.75C5.86 0.73 6.09 0.38 6.4 0.23C6.86 0 7.68 -0.02 8.64 0C9.39 0.01 9.61 0.05 9.9 0.13C10.79 0.34 10.49 1.19 10.49 3.22C10.49 3.87 10.37 4.78 10.83 5.08C11.03 5.21 11.51 5.11 12.71 3.01C13.28 2.02 13.71 0.86 13.71 0.86C13.71 0.86 13.81 0.65 13.95 0.56C14.1 0.47 14.3 0.49 14.3 0.49L17 0.48C17 0.48 17.81 0.38 17.95 0.76C18.09 1.15 17.65 2.07 16.54 3.58C14.72 6.05 14.52 5.82 16.03 7.24C17.47 8.61 17.76 9.28 17.81 9.36C18.41 10.37 17.15 10.45 17.15 10.45L17.15 10.43Z" fill="#000000" fill-opacity="1.000000" fill-rule="evenodd"/>
</svg>
