<svg width="18.000000" height="18.000000" viewBox="0 0 18 18" fill="none" xmlns="http://www.w3.org/2000/svg" xmlns:xlink="http://www.w3.org/1999/xlink">
	<desc>
			Created with Pixso.
	</desc>
	<defs/>
	<rect id="Property 1=CalendarBlank" width="18.000000" height="18.000000" fill="#FFFFFF" fill-opacity="0"/>
	<path id="Vector (Stroke)" d="M2.25 3.37C2.25 2.75 2.75 2.25 3.37 2.25L14.62 2.25C15.24 2.25 15.75 2.75 15.75 3.37L15.75 14.62C15.75 15.24 15.24 15.75 14.62 15.75L3.37 15.75C2.75 15.75 2.25 15.24 2.25 14.62L2.25 3.37ZM14.62 3.37L3.37 3.37L3.37 14.62L14.62 14.62L14.62 3.37Z" fill="#757575" fill-opacity="1.000000" fill-rule="evenodd"/>
	<path id="Vector (Stroke)" d="M12.37 1.12C12.68 1.12 12.93 1.37 12.93 1.68L12.93 3.93C12.93 4.24 12.68 4.5 12.37 4.5C12.06 4.5 11.81 4.24 11.81 3.93L11.81 1.68C11.81 1.37 12.06 1.12 12.37 1.12Z" fill="#333333" fill-opacity="1.000000" fill-rule="evenodd"/>
	<path id="Vector (Stroke)" d="M5.62 1.12C5.93 1.12 6.18 1.37 6.18 1.68L6.18 3.93C6.18 4.24 5.93 4.5 5.62 4.5C5.31 4.5 5.06 4.24 5.06 3.93L5.06 1.68C5.06 1.37 5.31 1.12 5.62 1.12Z" fill="#333333" fill-opacity="1.000000" fill-rule="evenodd"/>
	<path id="Vector (Stroke)" d="M2.25 6.18C2.25 5.87 2.5 5.62 2.81 5.62L15.18 5.62C15.49 5.62 15.75 5.87 15.75 6.18C15.75 6.49 15.49 6.75 15.18 6.75L2.81 6.75C2.5 6.75 2.25 6.49 2.25 6.18Z" fill="#333333" fill-opacity="1.000000" fill-rule="evenodd"/>
</svg>
