<svg width="16.000000" height="11.000000" viewBox="0 0 16 11" fill="none" xmlns="http://www.w3.org/2000/svg" xmlns:xlink="http://www.w3.org/1999/xlink">
	<desc>
			Created with Pixso.
	</desc>
	<defs/>
	<path id="Vector" d="M8 1.46C10.75 1.46 13.21 3.02 14.41 5.5C13.21 7.97 10.76 9.53 8 9.53C5.23 9.53 2.78 7.97 1.58 5.5C2.78 3.02 5.24 1.46 8 1.46ZM8 0C4.36 0 1.25 2.28 0 5.5C1.25 8.71 4.36 11 8 11C11.63 11 14.74 8.71 16 5.5C14.74 2.28 11.63 0 8 0ZM8 3.66C9 3.66 9.81 4.48 9.81 5.5C9.81 6.51 9 7.33 8 7.33C6.99 7.33 6.18 6.51 6.18 5.5C6.18 4.48 6.99 3.66 8 3.66ZM8 2.19C6.19 2.19 4.72 3.68 4.72 5.5C4.72 7.31 6.19 8.8 8 8.8C9.8 8.8 11.27 7.31 11.27 5.5C11.27 3.68 9.8 2.19 8 2.19Z" fill="#828282" fill-opacity="1.000000" fill-rule="nonzero"/>
</svg>
