<svg width="3.500000" height="15.750000" viewBox="0 0 3.5 15.75" fill="none" xmlns="http://www.w3.org/2000/svg" xmlns:xlink="http://www.w3.org/1999/xlink">
	<desc>
			Created with Pixso.
	</desc>
	<defs/>
	<path id="Union" d="M3.5 1.75C3.5 2.71 2.71 3.5 1.75 3.5C0.78 3.5 0 2.71 0 1.75C0 0.78 0.78 0 1.75 0C2.71 0 3.5 0.78 3.5 1.75ZM1.75 6.12C0.78 6.12 0 6.9 0 7.87C0 8.84 0.78 9.62 1.75 9.62C2.71 9.62 3.5 8.84 3.5 7.87C3.5 6.9 2.71 6.12 1.75 6.12ZM0 14C0 13.03 0.78 12.25 1.75 12.25C2.71 12.25 3.5 13.03 3.5 14C3.5 14.96 2.71 15.75 1.75 15.75C0.78 15.75 0 14.96 0 14Z" fill="#828282" fill-opacity="1.000000" fill-rule="evenodd"/>
</svg>
