<svg width="22.000000" height="22.000000" viewBox="0 0 22 22" fill="none" xmlns="http://www.w3.org/2000/svg" xmlns:xlink="http://www.w3.org/1999/xlink">
	<desc>
			Created with Pixso.
	</desc>
	<defs/>
	<path id="Vector" d="M2.89 9.47C3.26 7.49 4.35 5.73 5.93 4.49C7.52 3.26 9.5 2.65 11.5 2.78C13.51 2.9 15.39 3.76 16.81 5.18C18.23 6.6 19.09 8.48 19.21 10.49C19.34 12.49 18.73 14.47 17.5 16.06C16.26 17.64 14.5 18.73 12.52 19.1C10.55 19.48 8.51 19.12 6.78 18.09L3.93 18.9C3.81 18.94 3.69 18.94 3.57 18.91C3.45 18.88 3.35 18.82 3.26 18.73C3.17 18.64 3.11 18.54 3.08 18.42C3.05 18.3 3.05 18.18 3.09 18.06L3.9 15.21C2.87 13.48 2.51 11.44 2.89 9.47Z" stroke="#828282" stroke-opacity="1.000000" stroke-width="2.000000" stroke-linejoin="round"/>
	<path id="Vector" d="M12.03 11C12.03 11.56 11.56 12.03 11 12.03C10.43 12.03 9.96 11.56 9.96 11C9.96 10.43 10.43 9.96 11 9.96C11.56 9.96 12.03 10.43 12.03 11Z" fill="#828282" fill-opacity="1.000000" fill-rule="evenodd"/>
	<path id="Vector" d="M7.9 11C7.9 11.56 7.44 12.03 6.87 12.03C6.3 12.03 5.84 11.56 5.84 11C5.84 10.43 6.3 9.96 6.87 9.96C7.44 9.96 7.9 10.43 7.9 11Z" fill="#828282" fill-opacity="1.000000" fill-rule="evenodd"/>
	<path id="Vector" d="M16.15 11C16.15 11.56 15.69 12.03 15.12 12.03C14.55 12.03 14.09 11.56 14.09 11C14.09 10.43 14.55 9.96 15.12 9.96C15.69 9.96 16.15 10.43 16.15 11Z" fill="#828282" fill-opacity="1.000000" fill-rule="evenodd"/>
</svg>
