<svg width="23.000000" height="24.000000" viewBox="0 0 23 24" fill="none" xmlns="http://www.w3.org/2000/svg" xmlns:xlink="http://www.w3.org/1999/xlink">
	<desc>
			Created with Pixso.
	</desc>
	<defs>
		<clipPath id="clip3_11429">
			<rect id="icons" width="23.000000" height="24.000000" fill="white" fill-opacity="0"/>
		</clipPath>
	</defs>
	<rect id="icons" width="23.000000" height="24.000000" fill="#FFFFFF" fill-opacity="0"/>
	<g clip-path="url(#clip3_11429)">
		<path id="Vector" d="M8.62 21L14.37 21" stroke="#828282" stroke-opacity="1.000000" stroke-width="2.000000" stroke-linejoin="round" stroke-linecap="round"/>
		<path id="Vector" d="M5.54 7.15C5.86 6.33 6.34 5.59 6.95 4.96C7.55 4.33 8.27 3.84 9.05 3.5C9.84 3.16 10.69 2.99 11.54 3C15.1 3.02 17.95 6.11 17.95 9.83L17.95 10.5C17.95 13.85 18.62 15.8 19.21 16.87C19.28 16.98 19.31 17.11 19.31 17.24C19.31 17.38 19.28 17.5 19.21 17.62C19.15 17.73 19.06 17.83 18.95 17.89C18.84 17.96 18.72 17.99 18.59 18L4.4 18C4.27 17.99 4.15 17.96 4.04 17.89C3.93 17.83 3.84 17.73 3.78 17.62C3.71 17.5 3.68 17.38 3.68 17.24C3.68 17.11 3.71 16.98 3.78 16.87C4.37 15.8 5.04 13.85 5.04 10.5L5.04 9.75C5.04 8.86 5.21 7.98 5.54 7.15Z" stroke="#828282" stroke-opacity="1.000000" stroke-width="2.000000" stroke-linejoin="round"/>
	</g>
</svg>
