<svg width="14.000000" height="14.000000" viewBox="0 0 14 14" fill="none" xmlns="http://www.w3.org/2000/svg" xmlns:xlink="http://www.w3.org/1999/xlink">
	<desc>
			Created with Pixso.
	</desc>
	<defs/>
	<path id="Vector" d="M9 9L13 13L9 9ZM9.97 7.45C9.74 8.01 9.39 8.53 8.96 8.96C8.53 9.39 8.01 9.74 7.45 9.97C6.88 10.21 6.27 10.33 5.66 10.33C5.05 10.33 4.44 10.21 3.88 9.97C3.31 9.74 2.8 9.39 2.36 8.96C1.93 8.53 1.58 8.01 1.35 7.45C1.12 6.88 1 6.27 1 5.66C1 4.42 1.49 3.24 2.36 2.36C3.24 1.49 4.42 1 5.66 1C6.9 1 8.09 1.49 8.96 2.36C9.84 3.24 10.33 4.42 10.33 5.66C10.33 6.27 10.21 6.88 9.97 7.45Z" stroke="#828282" stroke-opacity="1.000000" stroke-width="2.000000" stroke-linejoin="round"/>
</svg>
