<svg width="23.333328" height="23.333374" viewBox="0 0 23.3333 23.3334" fill="none" xmlns="http://www.w3.org/2000/svg" xmlns:xlink="http://www.w3.org/1999/xlink">
	<desc>
			Created with Pixso.
	</desc>
	<defs/>
	<rect width="20.000000" height="20.000000" transform="translate(1.111099 2.222290)" fill="#FFFFFF" fill-opacity="0"/>
	<path d="M13.85 2.91L13.85 8.54C13.85 8.68 13.88 8.8 13.95 8.92L19.75 18.58C19.81 18.69 19.85 18.82 19.85 18.94C19.85 19.07 19.82 19.2 19.76 19.31C19.69 19.42 19.6 19.52 19.49 19.58C19.38 19.65 19.25 19.68 19.13 19.68L4.2 19.68C4.07 19.68 3.94 19.65 3.83 19.58C3.72 19.52 3.63 19.42 3.57 19.31C3.5 19.2 3.47 19.07 3.47 18.94C3.48 18.82 3.51 18.69 3.58 18.58L9.37 8.92C9.44 8.8 9.47 8.68 9.47 8.54L9.47 2.91" stroke="#333333" stroke-opacity="1.000000" stroke-width="2.000000" stroke-linejoin="round" stroke-linecap="round"/>
	<path d="M15.31 2.91L8.02 2.91" stroke="#333333" stroke-opacity="1.000000" stroke-width="2.000000" stroke-linejoin="round" stroke-linecap="round"/>
	<path d="M17.62 15.03C16.55 14.24 14.7 13.79 11.66 15.31C8.41 16.94 6.51 16.29 5.47 15.41" stroke="#333333" stroke-opacity="1.000000" stroke-width="2.000000" stroke-linejoin="round" stroke-linecap="round"/>
</svg>
