<svg width="20.000000" height="20.000000" viewBox="0 0 20 20" fill="none" xmlns="http://www.w3.org/2000/svg" xmlns:xlink="http://www.w3.org/1999/xlink">
	<desc>
			Created with Pixso.
	</desc>
	<defs/>
	<path d="M16.25 11.25C16.59 11.25 16.87 11.52 16.87 11.87L16.87 15C16.87 15.34 16.59 15.62 16.25 15.62L3.75 15.62C3.4 15.62 3.12 15.34 3.12 15L3.12 11.87C3.12 11.52 3.4 11.25 3.75 11.25L16.25 11.25Z" stroke="#333333" stroke-opacity="1.000000" stroke-width="2.000000" stroke-linejoin="round"/>
	<path d="M16.25 4.37C16.59 4.37 16.87 4.65 16.87 5L16.87 8.12C16.87 8.47 16.59 8.75 16.25 8.75L3.75 8.75C3.4 8.75 3.12 8.47 3.12 8.12L3.12 5C3.12 4.65 3.4 4.37 3.75 4.37L16.25 4.37Z" stroke="#333333" stroke-opacity="1.000000" stroke-width="2.000000" stroke-linejoin="round"/>
</svg>
