<svg width="20.000000" height="20.000000" viewBox="0 0 20 20" fill="none" xmlns="http://www.w3.org/2000/svg" xmlns:xlink="http://www.w3.org/1999/xlink">
	<desc>
			Created with Pixso.
	</desc>
	<defs/>
	<path d="M17.5 2.5L10 2.5" stroke="#333333" stroke-opacity="1.000000" stroke-width="2.000000" stroke-linejoin="round" stroke-linecap="round"/>
	<path d="M16.49 6.25L3.5 13.75" stroke="#333333" stroke-opacity="1.000000" stroke-width="2.000000" stroke-linejoin="round" stroke-linecap="round"/>
	<path d="M2.5 10C2.49 8.44 2.97 6.93 3.87 5.66C4.77 4.4 6.03 3.44 7.5 2.92L7.5 8.55L2.62 11.37C2.53 10.92 2.49 10.46 2.5 10Z" stroke="#333333" stroke-opacity="1.000000" stroke-width="2.000000" stroke-linejoin="round"/>
	<path d="M10 2.5C11.31 2.5 12.6 2.84 13.74 3.5C14.88 4.15 15.82 5.1 16.48 6.23C17.14 7.37 17.49 8.66 17.49 9.98C17.5 11.29 17.16 12.58 16.5 13.72C15.85 14.86 14.91 15.81 13.77 16.47C12.64 17.14 11.35 17.49 10.03 17.49C8.72 17.5 7.43 17.16 6.29 16.51C5.14 15.86 4.19 14.93 3.53 13.79" stroke="#333333" stroke-opacity="1.000000" stroke-width="2.000000" stroke-linejoin="round" stroke-linecap="round"/>
</svg>
