<svg width="20.000000" height="20.000000" viewBox="0 0 20 20" fill="none" xmlns="http://www.w3.org/2000/svg" xmlns:xlink="http://www.w3.org/1999/xlink">
	<desc>
			Created with Pixso.
	</desc>
	<defs/>
	<path d="M2.63 8.6C2.97 6.81 3.95 5.2 5.39 4.09C6.83 2.97 8.63 2.41 10.46 2.53C12.28 2.64 13.99 3.41 15.28 4.71C16.58 6 17.35 7.71 17.46 9.53C17.58 11.36 17.02 13.16 15.9 14.6C14.79 16.04 13.18 17.02 11.39 17.36C9.59 17.7 7.74 17.38 6.17 16.45L3.57 17.18C3.47 17.21 3.35 17.22 3.25 17.19C3.14 17.16 3.04 17.1 2.96 17.03C2.89 16.95 2.83 16.85 2.8 16.74C2.77 16.64 2.78 16.52 2.81 16.42L3.54 13.82C2.61 12.25 2.29 10.4 2.63 8.6Z" stroke="#333333" stroke-opacity="1.000000" stroke-width="2.000000" stroke-linejoin="round"/>
	<path d="M10.93 10C10.93 10.51 10.51 10.93 10 10.93C9.48 10.93 9.06 10.51 9.06 10C9.06 9.48 9.48 9.06 10 9.06C10.51 9.06 10.93 9.48 10.93 10Z" fill="#333333" fill-opacity="1.000000" fill-rule="evenodd"/>
	<path d="M7.18 10C7.18 10.51 6.76 10.93 6.25 10.93C5.73 10.93 5.31 10.51 5.31 10C5.31 9.48 5.73 9.06 6.25 9.06C6.76 9.06 7.18 9.48 7.18 10Z" fill="#333333" fill-opacity="1.000000" fill-rule="evenodd"/>
	<path d="M14.68 10C14.68 10.51 14.26 10.93 13.75 10.93C13.23 10.93 12.81 10.51 12.81 10C12.81 9.48 13.23 9.06 13.75 9.06C14.26 9.06 14.68 9.48 14.68 10Z" fill="#333333" fill-opacity="1.000000" fill-rule="evenodd"/>
</svg>
