<svg width="15.750000" height="16.156006" viewBox="0 0 15.75 16.156" fill="none" xmlns="http://www.w3.org/2000/svg" xmlns:xlink="http://www.w3.org/1999/xlink">
	<desc>
			Created with Pixso.
	</desc>
	<defs/>
	<path id="Vector" d="M9.75 10.78C9.75 10.61 9.68 10.45 9.56 10.33C9.44 10.22 9.29 10.15 9.12 10.15L6.62 10.15C6.45 10.15 6.3 10.22 6.18 10.33C6.06 10.45 6 10.61 6 10.78L6 14.53C6 14.69 5.93 14.85 5.81 14.97C5.69 15.09 5.54 15.15 5.37 15.15L1.62 15.15C1.45 15.15 1.3 15.09 1.18 14.97C1.06 14.85 1 14.69 1 14.53L1 7.3C1 7.21 1.02 7.13 1.05 7.05C1.08 6.97 1.14 6.9 1.2 6.84L7.45 1.16C7.56 1.05 7.71 1 7.87 1C8.03 1 8.18 1.05 8.29 1.16L14.54 6.84C14.6 6.9 14.66 6.97 14.69 7.05C14.72 7.13 14.74 7.21 14.75 7.3L14.75 14.53C14.75 14.69 14.68 14.85 14.56 14.97C14.44 15.09 14.29 15.15 14.12 15.15L10.37 15.15C10.2 15.15 10.05 15.09 9.93 14.97C9.81 14.85 9.75 14.69 9.75 14.53L9.75 10.78Z" stroke="#333333" stroke-opacity="1.000000" stroke-width="2.000000" stroke-linejoin="round"/>
</svg>
