<svg width="20.000000" height="20.000000" viewBox="0 0 20 20" fill="none" xmlns="http://www.w3.org/2000/svg" xmlns:xlink="http://www.w3.org/1999/xlink">
	<desc>
			Created with Pixso.
	</desc>
	<defs/>
	<path d="M1.25 16.87L18.75 16.87" stroke="#333333" stroke-opacity="1.000000" stroke-width="2.000000" stroke-linejoin="round" stroke-linecap="round"/>
	<path d="M11.25 16.87L11.25 3.12C11.25 2.95 11.18 2.8 11.06 2.68C10.94 2.56 10.79 2.5 10.62 2.5L3.12 2.5C2.95 2.5 2.8 2.56 2.68 2.68C2.56 2.8 2.5 2.95 2.5 3.12L2.5 16.87" stroke="#333333" stroke-opacity="1.000000" stroke-width="2.000000" stroke-linejoin="round" stroke-linecap="round"/>
	<path d="M17.5 16.87L17.5 8.12C17.5 7.95 17.43 7.8 17.31 7.68C17.19 7.56 17.04 7.5 16.87 7.5L11.25 7.5" stroke="#333333" stroke-opacity="1.000000" stroke-width="2.000000" stroke-linejoin="round" stroke-linecap="round"/>
	<path d="M5 5.62L7.5 5.62" stroke="#333333" stroke-opacity="1.000000" stroke-width="2.000000" stroke-linejoin="round" stroke-linecap="round"/>
	<path d="M6.25 10.62L8.75 10.62" stroke="#333333" stroke-opacity="1.000000" stroke-width="2.000000" stroke-linejoin="round" stroke-linecap="round"/>
	<path d="M5 13.75L7.5 13.75" stroke="#333333" stroke-opacity="1.000000" stroke-width="2.000000" stroke-linejoin="round" stroke-linecap="round"/>
	<path d="M13.75 13.75L15 13.75" stroke="#333333" stroke-opacity="1.000000" stroke-width="2.000000" stroke-linejoin="round" stroke-linecap="round"/>
	<path d="M13.75 10.62L15 10.62" stroke="#333333" stroke-opacity="1.000000" stroke-width="2.000000" stroke-linejoin="round" stroke-linecap="round"/>
</svg>
