<svg width="20.000000" height="20.000000" viewBox="0 0 20 20" fill="none" xmlns="http://www.w3.org/2000/svg" xmlns:xlink="http://www.w3.org/1999/xlink">
	<desc>
			Created with Pixso.
	</desc>
	<defs/>
	<path d="M6.87 12.5C4.63 12.5 2.81 10.68 2.81 8.43C2.81 6.19 4.63 4.37 6.87 4.37C9.11 4.37 10.93 6.19 10.93 8.43C10.93 10.68 9.11 12.5 6.87 12.5Z" stroke="#333333" stroke-opacity="1.000000" stroke-width="2.000000"/>
	<path d="M12.14 4.52C12.49 4.42 12.87 4.37 13.24 4.37C14.31 4.37 15.35 4.8 16.11 5.56C16.87 6.32 17.3 7.36 17.3 8.43C17.3 9.51 16.87 10.54 16.11 11.31C15.35 12.07 14.31 12.5 13.24 12.5" stroke="#333333" stroke-opacity="1.000000" stroke-width="2.000000" stroke-linejoin="round" stroke-linecap="round"/>
	<path d="M1.25 15.42C1.88 14.51 2.72 13.78 3.7 13.27C4.68 12.76 5.77 12.49 6.87 12.49C7.97 12.49 9.06 12.76 10.04 13.27C11.02 13.78 11.86 14.51 12.5 15.42" stroke="#333333" stroke-opacity="1.000000" stroke-width="2.000000" stroke-linejoin="round" stroke-linecap="round"/>
	<path d="M13.24 12.5C14.34 12.49 15.43 12.76 16.41 13.27C17.39 13.78 18.23 14.51 18.86 15.42" stroke="#333333" stroke-opacity="1.000000" stroke-width="2.000000" stroke-linejoin="round" stroke-linecap="round"/>
</svg>
