<svg width="20.000000" height="20.000000" viewBox="0 0 20 20" fill="none" xmlns="http://www.w3.org/2000/svg" xmlns:xlink="http://www.w3.org/1999/xlink">
	<desc>
			Created with Pixso.
	</desc>
	<defs>
		<clipPath id="clip3_18338">
			<rect width="20.000000" height="20.000000" fill="white" fill-opacity="0"/>
		</clipPath>
	</defs>
	<g clip-path="url(#clip3_18338)">
		<path d="M7.5 11.87L12.5 11.87" stroke="#333333" stroke-opacity="1.000000" stroke-width="2.000000" stroke-linejoin="round" stroke-linecap="round"/>
		<path d="M7.5 9.37L12.5 9.37" stroke="#333333" stroke-opacity="1.000000" stroke-width="2.000000" stroke-linejoin="round" stroke-linecap="round"/>
		<path d="M12.5 3.12L15.62 3.12C15.79 3.12 15.94 3.19 16.06 3.3C16.18 3.42 16.25 3.58 16.25 3.75L16.25 16.87C16.25 17.04 16.18 17.19 16.06 17.31C15.94 17.43 15.79 17.5 15.62 17.5L4.37 17.5C4.2 17.5 4.05 17.43 3.93 17.31C3.81 17.19 3.75 17.04 3.75 16.87L3.75 3.75C3.75 3.58 3.81 3.42 3.93 3.3C4.05 3.19 4.2 3.12 4.37 3.12L7.5 3.12" stroke="#333333" stroke-opacity="1.000000" stroke-width="2.000000" stroke-linejoin="round" stroke-linecap="round"/>
		<path d="M6.87 5C6.87 4.17 7.2 3.37 7.79 2.79C8.37 2.2 9.17 1.87 10 1.87C10.82 1.87 11.62 2.2 12.2 2.79C12.79 3.37 13.12 4.17 13.12 5L13.12 5.62L6.87 5.62L6.87 5Z" stroke="#333333" stroke-opacity="1.000000" stroke-width="2.000000" stroke-linejoin="round"/>
	</g>
</svg>
