<svg width="14.000000" height="14.000000" viewBox="0 0 14 14" fill="none" xmlns="http://www.w3.org/2000/svg" xmlns:xlink="http://www.w3.org/1999/xlink">
	<desc>
			Created with Pixso.
	</desc>
	<defs>
		<clipPath id="clip3_12082">
			<rect id="Property 1=moderator" width="14.000000" height="14.000000" fill="white" fill-opacity="0"/>
		</clipPath>
	</defs>
	<rect id="Property 1=moderator" width="14.000000" height="14.000000" fill="#FFFFFF" fill-opacity="0"/>
	<g clip-path="url(#clip3_12082)">
		<path id="Vector" d="M7 7C5.38 7 4.08 5.69 4.08 4.08C4.08 2.47 5.38 1.16 7 1.16C8.61 1.16 9.91 2.47 9.91 4.08C9.91 5.69 8.61 7 7 7Z" stroke="#B9B9B9" stroke-opacity="1.000000" stroke-width="1.000000"/>
		<path id="Vector" d="M3.07 12.83C2.9 12.83 2.74 12.79 2.59 12.73C2.44 12.66 2.3 12.56 2.19 12.43C2.08 12.31 2 12.16 1.95 12.01C1.9 11.85 1.89 11.68 1.91 11.52L2.14 9.69C2.19 9.27 2.4 8.88 2.71 8.6C3.03 8.32 3.45 8.16 3.87 8.16L4.08 8.16L9.91 12.83L3.07 12.83ZM9.33 9.33L10.64 10.5L12.83 8.16" stroke="#B9B9B9" stroke-opacity="1.000000" stroke-width="1.000000" stroke-linejoin="round" stroke-linecap="round"/>
	</g>
</svg>
