<svg width="14.000000" height="14.000000" viewBox="0 0 14 14" fill="none" xmlns="http://www.w3.org/2000/svg" xmlns:xlink="http://www.w3.org/1999/xlink">
	<desc>
			Created with Pixso.
	</desc>
	<defs>
		<clipPath id="clip3_12090">
			<rect id="Property 1=group-resource" width="14.000000" height="14.000000" fill="white" fill-opacity="0"/>
		</clipPath>
	</defs>
	<rect id="Property 1=group-resource" width="14.000000" height="14.000000" fill="#FFFFFF" fill-opacity="0"/>
	<g clip-path="url(#clip3_12090)">
		<path id="Vector" d="M9.62 10.5L4.37 10.5C4.14 10.49 3.92 10.4 3.75 10.24C3.59 10.07 3.5 9.85 3.5 9.62L3.5 4.37C3.5 4.14 3.59 3.92 3.75 3.75C3.92 3.59 4.14 3.5 4.37 3.5L9.62 3.5C9.85 3.5 10.07 3.59 10.24 3.75C10.4 3.92 10.49 4.14 10.5 4.37L10.5 9.62C10.49 9.85 10.4 10.07 10.24 10.24C10.07 10.4 9.85 10.49 9.62 10.5ZM4.37 4.37L4.37 9.62L9.62 9.62L9.62 4.37L4.37 4.37ZM3.5 13.12L1.75 13.12C1.51 13.12 1.29 13.03 1.13 12.86C0.96 12.7 0.87 12.48 0.87 12.25L0.87 1.75C0.87 1.51 0.96 1.29 1.13 1.13C1.29 0.96 1.51 0.87 1.75 0.87L3.5 0.87L3.5 1.75L1.75 1.75L1.75 12.25L3.5 12.25L3.5 13.12ZM12.25 13.12L10.5 13.12L10.5 12.25L12.25 12.25L12.25 1.75L10.5 1.75L10.5 0.87L12.25 0.87C12.48 0.87 12.7 0.96 12.86 1.13C13.03 1.29 13.12 1.51 13.12 1.75L13.12 12.25C13.12 12.48 13.03 12.7 12.86 12.86C12.7 13.03 12.48 13.12 12.25 13.12Z" fill="#B9B9B9" fill-opacity="1.000000" fill-rule="nonzero"/>
	</g>
</svg>
