<svg width="14.000000" height="14.000000" viewBox="0 0 14 14" fill="none" xmlns="http://www.w3.org/2000/svg" xmlns:xlink="http://www.w3.org/1999/xlink">
	<desc>
			Created with Pixso.
	</desc>
	<defs>
		<clipPath id="clip3_12086">
			<rect id="Property 1=group" width="14.000000" height="14.000000" fill="white" fill-opacity="0"/>
		</clipPath>
	</defs>
	<rect id="Property 1=group" width="14.000000" height="14.000000" fill="#FFFFFF" fill-opacity="0"/>
	<g clip-path="url(#clip3_12086)">
		<path id="Vector" d="M12.25 0.87L10.06 0.87L10.06 1.75L12.25 1.75L12.25 12.25L10.06 12.25L10.06 13.12L12.25 13.12C12.48 13.12 12.7 13.03 12.86 12.86C13.03 12.7 13.12 12.48 13.12 12.25L13.12 1.75C13.12 1.51 13.03 1.29 12.86 1.13C12.7 0.96 12.48 0.87 12.25 0.87ZM6.12 7.43L3.5 7.43C3.44 7.43 3.38 7.44 3.32 7.46C3.27 7.48 3.22 7.51 3.18 7.55C3.14 7.59 3.1 7.64 3.08 7.7C3.06 7.75 3.05 7.81 3.06 7.87L3.06 10.5C3.05 10.55 3.06 10.61 3.08 10.67C3.1 10.72 3.14 10.77 3.18 10.81C3.22 10.85 3.27 10.89 3.32 10.91C3.38 10.93 3.44 10.94 3.5 10.93L6.12 10.93C6.18 10.94 6.24 10.93 6.29 10.91C6.35 10.89 6.4 10.85 6.44 10.81C6.48 10.77 6.51 10.72 6.53 10.67C6.55 10.61 6.56 10.55 6.56 10.5L6.56 7.87C6.56 7.81 6.55 7.75 6.53 7.7C6.51 7.64 6.48 7.59 6.44 7.55C6.4 7.51 6.35 7.48 6.29 7.46C6.24 7.44 6.18 7.43 6.12 7.43ZM5.68 10.06L3.93 10.06L3.93 8.31L5.68 8.31L5.68 10.06Z" fill="#B9B9B9" fill-opacity="1.000000" fill-rule="nonzero"/>
		<path id="Vector" d="M10.93 10.5L10.93 7.87C10.94 7.81 10.93 7.75 10.91 7.7C10.89 7.64 10.85 7.59 10.81 7.55C10.77 7.51 10.72 7.48 10.67 7.46C10.61 7.44 10.55 7.43 10.5 7.43L7.87 7.43C7.81 7.43 7.75 7.44 7.7 7.46C7.64 7.48 7.59 7.51 7.55 7.55C7.51 7.59 7.48 7.64 7.46 7.7C7.44 7.75 7.43 7.81 7.43 7.87L7.43 10.5C7.43 10.55 7.44 10.61 7.46 10.67C7.48 10.72 7.51 10.77 7.55 10.81C7.59 10.85 7.64 10.89 7.7 10.91C7.75 10.93 7.81 10.94 7.87 10.93L10.5 10.93C10.61 10.93 10.72 10.89 10.8 10.8C10.89 10.72 10.93 10.61 10.93 10.5ZM10.06 10.06L8.31 10.06L8.31 8.31L10.06 8.31L10.06 10.06ZM6.12 3.06L3.5 3.06C3.44 3.05 3.38 3.06 3.32 3.08C3.27 3.1 3.22 3.14 3.18 3.18C3.14 3.22 3.1 3.27 3.08 3.32C3.06 3.38 3.05 3.44 3.06 3.5L3.06 6.12C3.05 6.18 3.06 6.24 3.08 6.29C3.1 6.35 3.14 6.4 3.18 6.44C3.22 6.48 3.27 6.51 3.32 6.53C3.38 6.55 3.44 6.56 3.5 6.56L6.12 6.56C6.18 6.56 6.24 6.55 6.29 6.53C6.35 6.51 6.4 6.48 6.44 6.44C6.48 6.4 6.51 6.35 6.53 6.29C6.55 6.24 6.56 6.18 6.56 6.12L6.56 3.5C6.56 3.44 6.55 3.38 6.53 3.32C6.51 3.27 6.48 3.22 6.44 3.18C6.4 3.14 6.35 3.1 6.29 3.08C6.24 3.06 6.18 3.05 6.12 3.06ZM5.68 5.68L3.93 5.68L3.93 3.93L5.68 3.93L5.68 5.68ZM7.87 6.56L10.5 6.56C10.55 6.56 10.61 6.55 10.67 6.53C10.72 6.51 10.77 6.48 10.81 6.44C10.85 6.4 10.89 6.35 10.91 6.29C10.93 6.24 10.94 6.18 10.93 6.12L10.93 3.5C10.94 3.44 10.93 3.38 10.91 3.32C10.89 3.27 10.85 3.22 10.81 3.18C10.77 3.14 10.72 3.1 10.67 3.08C10.61 3.06 10.55 3.05 10.5 3.06L7.87 3.06C7.81 3.05 7.75 3.06 7.7 3.08C7.64 3.1 7.59 3.14 7.55 3.18C7.51 3.22 7.48 3.27 7.46 3.32C7.44 3.38 7.43 3.44 7.43 3.5L7.43 6.12C7.43 6.24 7.48 6.35 7.56 6.43C7.64 6.51 7.75 6.56 7.87 6.56ZM8.31 3.93L10.06 3.93L10.06 5.68L8.31 5.68L8.31 3.93Z" fill="#B9B9B9" fill-opacity="1.000000" fill-rule="nonzero"/>
		<path id="Vector" d="M1.75 1.75L3.93 1.75L3.93 0.87L1.75 0.87C1.51 0.87 1.29 0.96 1.13 1.13C0.96 1.29 0.87 1.51 0.87 1.75L0.87 12.25C0.87 12.48 0.96 12.7 1.13 12.86C1.29 13.03 1.51 13.12 1.75 13.12L3.93 13.12L3.93 12.25L1.75 12.25L1.75 1.75Z" fill="#B9B9B9" fill-opacity="1.000000" fill-rule="nonzero"/>
	</g>
</svg>
