<svg width="15.000000" height="16.500000" viewBox="0 0 15 16.5" fill="none" xmlns="http://www.w3.org/2000/svg" xmlns:xlink="http://www.w3.org/1999/xlink">
	<desc>
			Created with Pixso.
	</desc>
	<defs/>
	<path id="Vector" d="M13.5 1.5L12.75 1.5L12.75 0L11.25 0L11.25 1.5L3.75 1.5L3.75 0L2.25 0L2.25 1.5L1.5 1.5C0.67 1.5 0 2.17 0 3L0 15C0 15.82 0.67 16.5 1.5 16.5L13.5 16.5C14.32 16.5 15 15.82 15 15L15 3C15 2.17 14.32 1.5 13.5 1.5ZM13.5 15L1.5 15L1.5 5.25L13.5 5.25L13.5 15Z" fill="#B0B0B0" fill-opacity="1.000000" fill-rule="nonzero"/>
</svg>
