<svg width="10.500000" height="15.000000" viewBox="0 0 10.5 15" fill="none" xmlns="http://www.w3.org/2000/svg" xmlns:xlink="http://www.w3.org/1999/xlink">
	<desc>
			Created with Pixso.
	</desc>
	<defs/>
	<path id="Vector" d="M9.75 4.5C9.75 2.01 7.73 0 5.25 0C2.76 0 0.75 2.01 0.75 4.5C0.75 7.87 5.25 12.75 5.25 12.75C5.25 12.75 9.75 7.87 9.75 4.5ZM3.75 4.5C3.75 3.67 4.42 3 5.25 3C6.07 3 6.75 3.67 6.75 4.5C6.75 5.32 6.08 6 5.25 6C4.42 6 3.75 5.32 3.75 4.5ZM0 13.5L0 15L10.5 15L10.5 13.5L0 13.5Z" fill="#B0B0B0" fill-opacity="1.000000" fill-rule="nonzero"/>
</svg>
