<svg width="47.501465" height="45.222839" viewBox="0 0 47.5015 45.2228" fill="none" xmlns="http://www.w3.org/2000/svg" xmlns:xlink="http://www.w3.org/1999/xlink">
	<desc>
			Created with Pixso.
	</desc>
	<defs/>
	<path id="Vector" d="M26.8 1.13L27.07 1.38L47.5 21.45L45.31 23.68L42.49 20.91L42.5 42.09C42.49 42.88 42.2 43.64 41.66 44.22C41.12 44.8 40.39 45.15 39.6 45.21L39.37 45.22L8.12 45.22C7.33 45.22 6.57 44.92 5.99 44.38C5.42 43.85 5.06 43.11 5 42.33L5 42.09L5 20.91L2.18 23.68L0 21.45L20.39 1.4C21.23 0.55 22.35 0.05 23.54 0C24.73 -0.05 25.89 0.35 26.8 1.13L26.8 1.13ZM22.76 3.47L22.61 3.61L8.12 17.84L8.12 42.09L15.93 42.09L15.93 26.47C15.93 25.68 16.23 24.92 16.77 24.34C17.3 23.76 18.04 23.41 18.82 23.35L19.06 23.34L28.43 23.34C29.22 23.34 29.98 23.64 30.56 24.18C31.14 24.71 31.49 25.45 31.55 26.23L31.56 26.47L31.56 42.09L39.37 42.09L39.37 17.84L24.84 3.57C24.56 3.3 24.2 3.14 23.82 3.13C23.43 3.11 23.06 3.23 22.76 3.48L22.76 3.47ZM28.43 26.47L19.06 26.47L19.06 42.09L28.43 42.09L28.43 26.47Z" fill="#4A68F6" fill-opacity="1.000000" fill-rule="nonzero"/>
</svg>
