<svg width="13.500000" height="15.000000" viewBox="0 0 13.5 15" fill="none" xmlns="http://www.w3.org/2000/svg" xmlns:xlink="http://www.w3.org/1999/xlink">
	<desc>
			Created with Pixso.
	</desc>
	<defs/>
	<path id="Vector" d="M13.12 3C11.16 3.52 8.87 3.75 6.75 3.75C4.62 3.75 2.33 3.52 0.37 3L0 4.5C1.39 4.87 3 5.12 4.5 5.25L4.5 15L6 15L6 10.5L7.5 10.5L7.5 15L9 15L9 5.25C10.5 5.12 12.1 4.87 13.5 4.5L13.12 3ZM6.75 3C7.57 3 8.25 2.32 8.25 1.5C8.25 0.67 7.57 0 6.75 0C5.92 0 5.25 0.67 5.25 1.5C5.25 2.32 5.92 3 6.75 3Z" fill="#B0B0B0" fill-opacity="1.000000" fill-rule="nonzero"/>
</svg>
