<svg width="18.000000" height="19.920044" viewBox="0 0 18 19.92" fill="none" xmlns="http://www.w3.org/2000/svg" xmlns:xlink="http://www.w3.org/1999/xlink">
	<desc>
			Created with Pixso.
	</desc>
	<defs/>
	<path id="Vector" d="M15 14.08C14.24 14.08 13.56 14.38 13.04 14.85L5.9 10.7C5.95 10.47 6 10.24 6 10C6 9.76 5.95 9.53 5.9 9.3L12.96 5.18C13.5 5.68 14.21 6 15 6C16.65 6 18 4.66 18 3C18 1.33 16.65 0 15 0C13.34 0 12 1.33 12 3C12 3.23 12.04 3.46 12.09 3.69L5.04 7.81C4.5 7.31 3.79 7 3 7C1.34 7 0 8.33 0 10C0 11.66 1.34 13 3 13C3.79 13 4.5 12.68 5.04 12.18L12.15 16.35C12.11 16.56 12.08 16.78 12.08 17C12.08 18.61 13.38 19.92 15 19.92C16.61 19.92 17.91 18.61 17.91 17C17.91 15.39 16.61 14.08 15 14.08Z" fill="#484848" fill-opacity="1.000000" fill-rule="nonzero"/>
</svg>
