<svg width="14.082436" height="13.442627" viewBox="0 0 14.0824 13.4426" fill="none" xmlns="http://www.w3.org/2000/svg" xmlns:xlink="http://www.w3.org/1999/xlink">
	<desc>
			Created with Pixso.
	</desc>
	<defs/>
	<path id="Star 1" d="M6.56 0.34L5.24 4.4C5.17 4.61 4.98 4.75 4.77 4.75L0.5 4.75C0.01 4.75 -0.19 5.37 0.2 5.65L3.66 8.16C3.83 8.29 3.9 8.51 3.84 8.72L2.52 12.78C2.37 13.24 2.9 13.62 3.29 13.34L6.74 10.83C6.92 10.7 7.15 10.7 7.33 10.83L10.78 13.34C11.18 13.62 11.7 13.24 11.55 12.78L10.23 8.72C10.17 8.51 10.24 8.29 10.42 8.16L13.87 5.65C14.26 5.37 14.06 4.75 13.58 4.75L9.31 4.75C9.09 4.75 8.9 4.61 8.83 4.4L7.51 0.34C7.36 -0.12 6.71 -0.12 6.56 0.34Z" fill="#B0B0B0" fill-opacity="1.000000" fill-rule="evenodd"/>
</svg>
