<svg width="10.556641" height="12.444519" viewBox="0 0 10.5566 12.4445" fill="none" xmlns="http://www.w3.org/2000/svg" xmlns:xlink="http://www.w3.org/1999/xlink">
	<desc>
			Created with Pixso.
	</desc>
	<defs/>
	<path id="Vector" d="M10.55 7.16C10.55 4.96 9.19 3.06 7.27 2.28L6.56 3.25C8.21 3.79 9.4 5.34 9.4 7.16C9.4 9.43 7.55 11.28 5.27 11.28C3 11.28 1.15 9.43 1.15 7.16C1.15 5.34 2.34 3.79 3.98 3.25L3.28 2.28C1.35 3.06 0 4.96 0 7.16C0 10.07 2.36 12.44 5.27 12.44C8.18 12.44 10.55 10.07 10.55 7.16Z" fill="#222222" fill-opacity="1.000000" fill-rule="nonzero"/>
	<path id="Vector" d="M4.38 3.14L4.75 3.65L5.27 3.62L5.79 3.65L6.17 3.14L6.89 2.14L7.74 0.97L6.95 0L5.27 0L3.6 0L2.81 0.97L3.65 2.14L4.38 3.14Z" fill="#222222" fill-opacity="1.000000" fill-rule="nonzero"/>
</svg>
