<svg width="15.500000" height="15.500000" viewBox="0 0 15.5 15.5" fill="none" xmlns="http://www.w3.org/2000/svg" xmlns:xlink="http://www.w3.org/1999/xlink">
	<desc>
			Created with Pixso.
	</desc>
	<defs/>
	<path id="Vector" d="M7.75 0C9.8 0 11.78 0.82 13.23 2.28C14.68 3.74 15.5 5.71 15.5 7.77C15.49 9.78 14.7 11.71 13.3 13.15C11.89 14.59 9.98 15.43 7.97 15.49L7.73 15.5C5.72 15.49 3.79 14.7 2.34 13.3C0.9 11.9 0.06 9.99 0 7.98L0 7.74C0 5.68 0.81 3.71 2.27 2.26C3.72 0.81 5.69 -0.01 7.75 0ZM9.7 8.5L5.79 8.5C5.95 11.39 6.97 13.84 7.68 13.99L7.75 14C8.43 13.99 9.47 11.63 9.68 8.77L9.7 8.5ZM13.95 8.5L11.2 8.5C11.11 10.46 10.67 12.28 10.01 13.57C11.03 13.18 11.92 12.52 12.6 11.68C13.29 10.83 13.74 9.82 13.92 8.74L13.95 8.5ZM4.29 8.5L1.54 8.5C1.68 9.62 2.11 10.68 2.81 11.58C3.5 12.47 4.42 13.16 5.47 13.57C4.86 12.36 4.44 10.7 4.31 8.88L4.29 8.49L4.29 8.5ZM5.48 1.92L5.36 1.96C4.34 2.39 3.44 3.08 2.77 3.96C2.1 4.85 1.67 5.89 1.54 7L4.29 7C4.38 5.16 4.76 3.45 5.35 2.18L5.48 1.92ZM7.74 1.5C7.04 1.5 5.96 4.01 5.79 7L9.7 7C9.54 4.09 8.52 1.65 7.81 1.5L7.74 1.49L7.74 1.5ZM10.02 1.93L10.04 1.98C10.69 3.27 11.11 5.06 11.2 7L13.95 7C13.81 5.87 13.37 4.81 12.68 3.92C11.99 3.03 11.07 2.34 10.02 1.93L10.02 1.93Z" fill="#000000" fill-opacity="1.000000" fill-rule="nonzero"/>
</svg>
